<svg width="72" height="72" viewBox="0 0 72 72" fill="none" xmlns="http://www.w3.org/2000/svg">
<rect width="72" height="72" rx="36" fill="#8A3FFC"/>
<path d="M47.4375 42C47.7469 42 48 42.2531 48 42.5625V44.4375C48 44.7469 47.7469 45 47.4375 45H24.5625C24.2531 45 24 44.7469 24 44.4375V27.5625C24 27.2531 24.2531 27 24.5625 27H26.4375C26.7469 27 27 27.2531 27 27.5625V42H47.4375ZM41.4703 31.4766L37.5 34.125L33.5016 28.7953C33.2625 28.4766 32.775 28.5 32.5688 28.8422L28.5 35.625V40.5H46.5L42.2859 31.6969C42.1359 31.3922 41.7516 31.2891 41.4703 31.4766Z" fill="white"/>
</svg>
