<svg width="72" height="72" viewBox="0 0 72 72" fill="none" xmlns="http://www.w3.org/2000/svg">
<rect width="72" height="72" rx="36" fill="#23DCF5"/>
<path d="M34.8885 31.0829H37.1116C38.0885 31.0829 38.8632 31.8913 38.8632 32.8344H41.659C41.659 30.4092 39.7727 28.4555 37.3811 28.2871V25.8281H34.5853V28.2871C32.1938 28.4555 30.3074 30.4092 30.3074 32.8344C30.3074 35.3608 32.3622 37.4155 34.8885 37.4155H37.1116C38.0885 37.4155 38.8632 38.2239 38.8632 39.1671C38.8632 40.1439 38.0548 40.9187 37.1116 40.9187H34.8885C33.9116 40.9187 33.1369 40.1102 33.1369 39.1671H30.3411C30.3411 41.5923 32.2274 43.546 34.619 43.7144V46.1734H37.4148V43.7144C39.8064 43.546 41.6927 41.5923 41.6927 39.1671C41.6927 36.6408 39.638 34.586 37.1116 34.586H34.8885C33.9116 34.586 33.1369 33.7776 33.1369 32.8344C33.1369 31.8576 33.9116 31.0829 34.8885 31.0829Z" fill="white"/>
<path d="M36 20C27.1747 20 20 27.1747 20 36C20 44.8253 27.1747 52 36 52C44.8253 52 52 44.8253 52 36C52 27.1747 44.8253 20 36 20ZM46.2737 44.2863L43.68 41.6926L41.6926 43.68L44.2863 46.2737C42.0295 48.0926 39.1326 49.2042 36 49.2042C28.7242 49.2042 22.7958 43.2758 22.7958 36C22.7958 32.8674 23.9074 29.9705 25.7263 27.7137L28.32 30.3074L30.3074 28.32L27.7137 25.7263C29.9705 23.9074 32.8674 22.7958 36 22.7958C43.2758 22.7958 49.2042 28.7242 49.2042 36C49.2042 39.1326 48.0926 42.0295 46.2737 44.2863Z" fill="white"/>
</svg>
